<mxfile>
    <diagram id="U6GAyfejCOMbGzcqvXXO" name="Home">
        <mxGraphModel dx="564" dy="430" grid="1" gridSize="10" guides="1" tooltips="1" connect="1" arrows="1" fold="1" page="1" pageScale="1" pageWidth="850" pageHeight="1100" math="0" shadow="0">
            <root>
                <mxCell id="oTpr-UV138n6AohWSnv2-0"/>
                <mxCell id="oTpr-UV138n6AohWSnv2-1" parent="oTpr-UV138n6AohWSnv2-0"/>
                <mxCell id="DWrG3ifRB4GOe69Trqt_-3" value="" style="rounded=1;whiteSpace=wrap;html=1;" vertex="1" parent="oTpr-UV138n6AohWSnv2-1">
                    <mxGeometry x="120" y="200" width="280" height="300" as="geometry"/>
                </mxCell>
                <mxCell id="DWrG3ifRB4GOe69Trqt_-5" value="&lt;p style=&quot;line-height: 100%&quot;&gt;&lt;/p&gt;&lt;h1 style=&quot;font-size: 16px&quot;&gt;Project Requirements&lt;/h1&gt;&lt;h1 style=&quot;font-size: 11px&quot;&gt;&lt;font style=&quot;font-size: 11px ; font-weight: normal&quot;&gt;Details...&amp;nbsp;&lt;/font&gt;&lt;/h1&gt;&lt;h1 style=&quot;font-size: 11px&quot;&gt;&lt;font style=&quot;font-size: 11px ; font-weight: normal&quot;&gt;Details...&amp;nbsp;&lt;/font&gt;&lt;/h1&gt;&lt;h1 style=&quot;font-size: 11px&quot;&gt;&lt;font style=&quot;font-size: 11px ; font-weight: normal&quot;&gt;Details...&amp;nbsp;&lt;/font&gt;&lt;/h1&gt;&lt;p&gt;&lt;/p&gt;" style="text;html=1;strokeColor=none;fillColor=none;spacing=5;spacingTop=-20;whiteSpace=wrap;overflow=hidden;rounded=0;" vertex="1" parent="oTpr-UV138n6AohWSnv2-1">
                    <mxGeometry x="139.31034482758622" y="210" width="183.44827586206898" height="90" as="geometry"/>
                </mxCell>
                <mxCell id="DWrG3ifRB4GOe69Trqt_-14" value="" style="endArrow=none;dashed=1;html=1;dashPattern=1 3;strokeWidth=2;exitX=0.5;exitY=1;exitDx=0;exitDy=0;entryX=0.25;entryY=0;entryDx=0;entryDy=0;" edge="1" parent="oTpr-UV138n6AohWSnv2-1" source="DWrG3ifRB4GOe69Trqt_-0" target="DWrG3ifRB4GOe69Trqt_-3">
                    <mxGeometry x="80" y="80" width="50" height="50" as="geometry">
                        <mxPoint x="310" y="240" as="sourcePoint"/>
                        <mxPoint x="360" y="190" as="targetPoint"/>
                    </mxGeometry>
                </mxCell>
                <mxCell id="DWrG3ifRB4GOe69Trqt_-10" value="&lt;font color=&quot;#808080&quot; style=&quot;font-size: 15px&quot;&gt;NAVBAR&lt;/font&gt;" style="text;html=1;strokeColor=none;fillColor=none;align=center;verticalAlign=middle;whiteSpace=wrap;rounded=0;" vertex="1" parent="oTpr-UV138n6AohWSnv2-1">
                    <mxGeometry x="350" y="80" width="90" height="30" as="geometry"/>
                </mxCell>
                <mxCell id="DWrG3ifRB4GOe69Trqt_-11" value="" style="endArrow=none;dashed=1;html=1;dashPattern=1 3;strokeWidth=2;entryX=0.5;entryY=1;entryDx=0;entryDy=0;exitX=0.75;exitY=0;exitDx=0;exitDy=0;" edge="1" parent="oTpr-UV138n6AohWSnv2-1" source="DWrG3ifRB4GOe69Trqt_-12" target="DWrG3ifRB4GOe69Trqt_-10">
                    <mxGeometry x="200" y="170" width="50" height="50" as="geometry">
                        <mxPoint x="310" y="250" as="sourcePoint"/>
                        <mxPoint x="360" y="200" as="targetPoint"/>
                    </mxGeometry>
                </mxCell>
                <mxCell id="DWrG3ifRB4GOe69Trqt_-12" value="" style="rounded=1;whiteSpace=wrap;html=1;" vertex="1" parent="oTpr-UV138n6AohWSnv2-1">
                    <mxGeometry x="120" y="160" width="280" height="40" as="geometry"/>
                </mxCell>
                <mxCell id="DWrG3ifRB4GOe69Trqt_-13" value="Home | Daily | Weekly" style="text;html=1;strokeColor=none;fillColor=none;align=center;verticalAlign=middle;whiteSpace=wrap;rounded=0;" vertex="1" parent="oTpr-UV138n6AohWSnv2-1">
                    <mxGeometry x="260" y="170" width="140" height="20" as="geometry"/>
                </mxCell>
                <mxCell id="DWrG3ifRB4GOe69Trqt_-0" value="&lt;font color=&quot;#808080&quot;&gt;&lt;span style=&quot;font-size: 15px&quot;&gt;HOME VIEW&lt;/span&gt;&lt;/font&gt;" style="text;html=1;strokeColor=none;fillColor=none;align=center;verticalAlign=middle;whiteSpace=wrap;rounded=0;" vertex="1" parent="oTpr-UV138n6AohWSnv2-1">
                    <mxGeometry x="80" y="80" width="130" height="30" as="geometry"/>
                </mxCell>
            </root>
        </mxGraphModel>
    </diagram>
    <diagram id="j6y6hH6URmRIBz3L3QN7" name="Daily">
        <mxGraphModel dx="564" dy="430" grid="1" gridSize="10" guides="1" tooltips="1" connect="1" arrows="1" fold="1" page="1" pageScale="1" pageWidth="850" pageHeight="1100" math="0" shadow="0">
            <root>
                <mxCell id="CuTS6Hq6CUTM5z0JJubi-0"/>
                <mxCell id="CuTS6Hq6CUTM5z0JJubi-1" parent="CuTS6Hq6CUTM5z0JJubi-0"/>
                <mxCell id="HIf6IvauggtXWVs6VpBq-10" value="&lt;font color=&quot;#808080&quot; style=&quot;font-size: 15px&quot;&gt;NAVBAR&lt;/font&gt;" style="text;html=1;strokeColor=none;fillColor=none;align=center;verticalAlign=middle;whiteSpace=wrap;rounded=0;" vertex="1" parent="CuTS6Hq6CUTM5z0JJubi-1">
                    <mxGeometry x="350" y="80" width="90" height="30" as="geometry"/>
                </mxCell>
                <mxCell id="HIf6IvauggtXWVs6VpBq-11" value="" style="endArrow=none;dashed=1;html=1;dashPattern=1 3;strokeWidth=2;entryX=0.5;entryY=1;entryDx=0;entryDy=0;exitX=0.75;exitY=0;exitDx=0;exitDy=0;" edge="1" parent="CuTS6Hq6CUTM5z0JJubi-1" source="HIf6IvauggtXWVs6VpBq-12" target="HIf6IvauggtXWVs6VpBq-10">
                    <mxGeometry x="120" y="80" width="50" height="50" as="geometry">
                        <mxPoint x="310" y="250" as="sourcePoint"/>
                        <mxPoint x="360" y="200" as="targetPoint"/>
                    </mxGeometry>
                </mxCell>
                <mxCell id="HIf6IvauggtXWVs6VpBq-12" value="" style="rounded=1;whiteSpace=wrap;html=1;" vertex="1" parent="CuTS6Hq6CUTM5z0JJubi-1">
                    <mxGeometry x="120" y="160" width="280" height="40" as="geometry"/>
                </mxCell>
                <mxCell id="HIf6IvauggtXWVs6VpBq-13" value="Home | Daily | Weekly" style="text;html=1;strokeColor=none;fillColor=none;align=center;verticalAlign=middle;whiteSpace=wrap;rounded=0;" vertex="1" parent="CuTS6Hq6CUTM5z0JJubi-1">
                    <mxGeometry x="260" y="170" width="140" height="20" as="geometry"/>
                </mxCell>
                <mxCell id="HIf6IvauggtXWVs6VpBq-2" value="" style="group" vertex="1" connectable="0" parent="CuTS6Hq6CUTM5z0JJubi-1">
                    <mxGeometry x="80" y="80" width="320" height="420" as="geometry"/>
                </mxCell>
                <mxCell id="HIf6IvauggtXWVs6VpBq-3" value="" style="rounded=1;whiteSpace=wrap;html=1;verticalAlign=middle;" vertex="1" parent="HIf6IvauggtXWVs6VpBq-2">
                    <mxGeometry x="40" y="120" width="280" height="300" as="geometry"/>
                </mxCell>
                <mxCell id="HIf6IvauggtXWVs6VpBq-4" value="&lt;p style=&quot;line-height: 100%&quot;&gt;&lt;/p&gt;&lt;h1 style=&quot;font-size: 16px&quot;&gt;&lt;font style=&quot;font-size: 16px&quot;&gt;City and Date&lt;/font&gt;&lt;/h1&gt;&lt;h1 style=&quot;font-size: 11px&quot;&gt;&lt;font style=&quot;font-size: 11px ; font-weight: normal&quot;&gt;Percipitation:&amp;nbsp;&lt;/font&gt;&lt;/h1&gt;&lt;h1 style=&quot;font-size: 11px&quot;&gt;&lt;font style=&quot;font-size: 11px ; font-weight: normal&quot;&gt;Temp:&amp;nbsp;&lt;/font&gt;&lt;/h1&gt;&lt;h1 style=&quot;font-size: 11px&quot;&gt;&lt;font style=&quot;font-size: 11px ; font-weight: normal&quot;&gt;Wind:&amp;nbsp;&lt;/font&gt;&lt;/h1&gt;&lt;p&gt;&lt;/p&gt;" style="text;html=1;strokeColor=none;fillColor=none;spacing=5;spacingTop=-20;whiteSpace=wrap;overflow=hidden;rounded=0;" vertex="1" parent="HIf6IvauggtXWVs6VpBq-2">
                    <mxGeometry x="59.310344827586206" y="130" width="183.44827586206898" height="90" as="geometry"/>
                </mxCell>
                <mxCell id="HIf6IvauggtXWVs6VpBq-5" value="&lt;p style=&quot;line-height: 100%&quot;&gt;&lt;/p&gt;&lt;h1 style=&quot;font-size: 16px&quot;&gt;&lt;font style=&quot;font-size: 16px&quot;&gt;City and Date&lt;/font&gt;&lt;/h1&gt;&lt;h1 style=&quot;font-size: 11px&quot;&gt;&lt;font style=&quot;font-size: 11px ; font-weight: normal&quot;&gt;Percipitation:&amp;nbsp;&lt;/font&gt;&lt;/h1&gt;&lt;h1 style=&quot;font-size: 11px&quot;&gt;&lt;font style=&quot;font-size: 11px ; font-weight: normal&quot;&gt;Temp:&amp;nbsp;&lt;/font&gt;&lt;/h1&gt;&lt;h1 style=&quot;font-size: 11px&quot;&gt;&lt;font style=&quot;font-size: 11px ; font-weight: normal&quot;&gt;Wind:&amp;nbsp;&lt;/font&gt;&lt;/h1&gt;&lt;p&gt;&lt;/p&gt;" style="text;html=1;strokeColor=none;fillColor=none;spacing=5;spacingTop=-20;whiteSpace=wrap;overflow=hidden;rounded=0;" vertex="1" parent="HIf6IvauggtXWVs6VpBq-2">
                    <mxGeometry x="59.310344827586206" y="220" width="183.44827586206898" height="90" as="geometry"/>
                </mxCell>
                <mxCell id="HIf6IvauggtXWVs6VpBq-6" value="&lt;p style=&quot;line-height: 100%&quot;&gt;&lt;/p&gt;&lt;h1 style=&quot;font-size: 16px&quot;&gt;&lt;font style=&quot;font-size: 16px&quot;&gt;City and Date&lt;/font&gt;&lt;/h1&gt;&lt;h1 style=&quot;font-size: 11px&quot;&gt;&lt;font style=&quot;font-size: 11px ; font-weight: normal&quot;&gt;Percipitation:&amp;nbsp;&lt;/font&gt;&lt;/h1&gt;&lt;h1 style=&quot;font-size: 11px&quot;&gt;&lt;font style=&quot;font-size: 11px ; font-weight: normal&quot;&gt;Temp:&amp;nbsp;&lt;/font&gt;&lt;/h1&gt;&lt;h1 style=&quot;font-size: 11px&quot;&gt;&lt;font style=&quot;font-size: 11px ; font-weight: normal&quot;&gt;Wind:&amp;nbsp;&lt;/font&gt;&lt;/h1&gt;&lt;p&gt;&lt;/p&gt;" style="text;html=1;strokeColor=none;fillColor=none;spacing=5;spacingTop=-20;whiteSpace=wrap;overflow=hidden;rounded=0;" vertex="1" parent="HIf6IvauggtXWVs6VpBq-2">
                    <mxGeometry x="59.310344827586206" y="310" width="183.44827586206898" height="90" as="geometry"/>
                </mxCell>
                <mxCell id="HIf6IvauggtXWVs6VpBq-0" value="&lt;font color=&quot;#808080&quot;&gt;&lt;span style=&quot;font-size: 15px&quot;&gt;DAILY DISPLAY&lt;/span&gt;&lt;/font&gt;" style="text;html=1;strokeColor=none;fillColor=none;align=center;verticalAlign=middle;whiteSpace=wrap;rounded=0;" vertex="1" parent="HIf6IvauggtXWVs6VpBq-2">
                    <mxGeometry width="120" height="30" as="geometry"/>
                </mxCell>
                <mxCell id="HIf6IvauggtXWVs6VpBq-14" value="" style="endArrow=none;dashed=1;html=1;dashPattern=1 3;strokeWidth=2;exitX=0.5;exitY=1;exitDx=0;exitDy=0;entryX=0.25;entryY=0;entryDx=0;entryDy=0;" edge="1" parent="HIf6IvauggtXWVs6VpBq-2" source="HIf6IvauggtXWVs6VpBq-0" target="HIf6IvauggtXWVs6VpBq-3">
                    <mxGeometry width="50" height="50" as="geometry">
                        <mxPoint x="230" y="160" as="sourcePoint"/>
                        <mxPoint x="280" y="110" as="targetPoint"/>
                    </mxGeometry>
                </mxCell>
            </root>
        </mxGraphModel>
    </diagram>
    <diagram id="tsEHkLLlDlDSP8g1bJq1" name="Weekly">
        <mxGraphModel dx="564" dy="430" grid="1" gridSize="10" guides="1" tooltips="1" connect="1" arrows="1" fold="1" page="1" pageScale="1" pageWidth="850" pageHeight="1100" math="0" shadow="0">
            <root>
                <mxCell id="K0YeOt4XeXtUiKa8qu7L-0"/>
                <mxCell id="K0YeOt4XeXtUiKa8qu7L-1" parent="K0YeOt4XeXtUiKa8qu7L-0"/>
                <mxCell id="mmVTkdA0utSBWZKQFHr_-0" value="" style="group" vertex="1" connectable="0" parent="K0YeOt4XeXtUiKa8qu7L-1">
                    <mxGeometry x="130" y="200" width="320" height="300" as="geometry"/>
                </mxCell>
                <mxCell id="mmVTkdA0utSBWZKQFHr_-1" value="" style="group" vertex="1" connectable="0" parent="mmVTkdA0utSBWZKQFHr_-0">
                    <mxGeometry x="-50" y="-120" width="360" height="420" as="geometry"/>
                </mxCell>
                <mxCell id="mmVTkdA0utSBWZKQFHr_-2" value="" style="rounded=1;whiteSpace=wrap;html=1;" vertex="1" parent="mmVTkdA0utSBWZKQFHr_-1">
                    <mxGeometry x="40" y="120" width="280" height="300" as="geometry"/>
                </mxCell>
                <mxCell id="mmVTkdA0utSBWZKQFHr_-3" value="&lt;p style=&quot;line-height: 100%&quot;&gt;&lt;/p&gt;&lt;h1 style=&quot;font-size: 16px&quot;&gt;&lt;font style=&quot;font-size: 16px&quot;&gt;City Name&lt;/font&gt;&lt;/h1&gt;&lt;h1 style=&quot;font-size: 11px&quot;&gt;&lt;font style=&quot;font-size: 11px ; font-weight: normal&quot;&gt;Chance of percipitation:&amp;nbsp;&lt;/font&gt;&lt;/h1&gt;&lt;h1 style=&quot;font-size: 11px&quot;&gt;&lt;font style=&quot;font-size: 11px ; font-weight: normal&quot;&gt;High temp:&amp;nbsp;&lt;/font&gt;&lt;/h1&gt;&lt;h1 style=&quot;font-size: 11px&quot;&gt;&lt;font style=&quot;font-size: 11px ; font-weight: normal&quot;&gt;Low temp:&amp;nbsp;&lt;/font&gt;&lt;/h1&gt;&lt;p&gt;&lt;/p&gt;" style="text;html=1;strokeColor=none;fillColor=none;spacing=5;spacingTop=-20;whiteSpace=wrap;overflow=hidden;rounded=0;" vertex="1" parent="mmVTkdA0utSBWZKQFHr_-1">
                    <mxGeometry x="59.310344827586206" y="130" width="183.44827586206898" height="90" as="geometry"/>
                </mxCell>
                <mxCell id="mmVTkdA0utSBWZKQFHr_-4" value="&lt;p style=&quot;line-height: 100%&quot;&gt;&lt;/p&gt;&lt;h1 style=&quot;font-size: 16px&quot;&gt;&lt;font style=&quot;font-size: 16px&quot;&gt;City Name&lt;/font&gt;&lt;/h1&gt;&lt;h1 style=&quot;font-size: 11px&quot;&gt;&lt;font style=&quot;font-size: 11px ; font-weight: normal&quot;&gt;Chance of percipitation:&amp;nbsp;&lt;/font&gt;&lt;/h1&gt;&lt;h1 style=&quot;font-size: 11px&quot;&gt;&lt;font style=&quot;font-size: 11px ; font-weight: normal&quot;&gt;High temp:&amp;nbsp;&lt;/font&gt;&lt;/h1&gt;&lt;h1 style=&quot;font-size: 11px&quot;&gt;&lt;font style=&quot;font-size: 11px ; font-weight: normal&quot;&gt;Low temp:&amp;nbsp;&lt;/font&gt;&lt;/h1&gt;&lt;p&gt;&lt;/p&gt;" style="text;html=1;strokeColor=none;fillColor=none;spacing=5;spacingTop=-20;whiteSpace=wrap;overflow=hidden;rounded=0;" vertex="1" parent="mmVTkdA0utSBWZKQFHr_-1">
                    <mxGeometry x="59.310344827586206" y="220" width="183.44827586206898" height="90" as="geometry"/>
                </mxCell>
                <mxCell id="mmVTkdA0utSBWZKQFHr_-5" value="&lt;p style=&quot;line-height: 100%&quot;&gt;&lt;/p&gt;&lt;h1 style=&quot;font-size: 16px&quot;&gt;&lt;font style=&quot;font-size: 16px&quot;&gt;City Name&lt;/font&gt;&lt;/h1&gt;&lt;h1 style=&quot;font-size: 11px&quot;&gt;&lt;font style=&quot;font-size: 11px ; font-weight: normal&quot;&gt;Chance of percipitation:&amp;nbsp;&lt;/font&gt;&lt;/h1&gt;&lt;h1 style=&quot;font-size: 11px&quot;&gt;&lt;font style=&quot;font-size: 11px ; font-weight: normal&quot;&gt;High temp:&amp;nbsp;&lt;/font&gt;&lt;/h1&gt;&lt;h1 style=&quot;font-size: 11px&quot;&gt;&lt;font style=&quot;font-size: 11px ; font-weight: normal&quot;&gt;Low temp:&amp;nbsp;&lt;/font&gt;&lt;/h1&gt;&lt;p&gt;&lt;/p&gt;" style="text;html=1;strokeColor=none;fillColor=none;spacing=5;spacingTop=-20;whiteSpace=wrap;overflow=hidden;rounded=0;" vertex="1" parent="mmVTkdA0utSBWZKQFHr_-1">
                    <mxGeometry x="59.310344827586206" y="310" width="183.44827586206898" height="90" as="geometry"/>
                </mxCell>
                <mxCell id="mmVTkdA0utSBWZKQFHr_-6" value="" style="group" vertex="1" connectable="0" parent="mmVTkdA0utSBWZKQFHr_-1">
                    <mxGeometry x="40" width="320" height="120" as="geometry"/>
                </mxCell>
                <mxCell id="mmVTkdA0utSBWZKQFHr_-7" value="&lt;font color=&quot;#808080&quot; style=&quot;font-size: 15px&quot;&gt;NAVBAR&lt;/font&gt;" style="text;html=1;strokeColor=none;fillColor=none;align=center;verticalAlign=middle;whiteSpace=wrap;rounded=0;" vertex="1" parent="mmVTkdA0utSBWZKQFHr_-6">
                    <mxGeometry x="230" width="90" height="30" as="geometry"/>
                </mxCell>
                <mxCell id="mmVTkdA0utSBWZKQFHr_-8" value="" style="endArrow=none;dashed=1;html=1;dashPattern=1 3;strokeWidth=2;entryX=0.5;entryY=1;entryDx=0;entryDy=0;exitX=0.75;exitY=0;exitDx=0;exitDy=0;" edge="1" parent="mmVTkdA0utSBWZKQFHr_-6" source="mmVTkdA0utSBWZKQFHr_-9" target="mmVTkdA0utSBWZKQFHr_-7">
                    <mxGeometry width="50" height="50" relative="1" as="geometry">
                        <mxPoint x="190" y="170" as="sourcePoint"/>
                        <mxPoint x="240" y="120" as="targetPoint"/>
                    </mxGeometry>
                </mxCell>
                <mxCell id="mmVTkdA0utSBWZKQFHr_-9" value="" style="rounded=1;whiteSpace=wrap;html=1;" vertex="1" parent="mmVTkdA0utSBWZKQFHr_-6">
                    <mxGeometry y="80" width="280" height="40" as="geometry"/>
                </mxCell>
                <mxCell id="mmVTkdA0utSBWZKQFHr_-10" value="Home | Daily | Weekly" style="text;html=1;strokeColor=none;fillColor=none;align=center;verticalAlign=middle;whiteSpace=wrap;rounded=0;" vertex="1" parent="mmVTkdA0utSBWZKQFHr_-6">
                    <mxGeometry x="140" y="90" width="140" height="20" as="geometry"/>
                </mxCell>
                <mxCell id="mmVTkdA0utSBWZKQFHr_-11" value="&lt;font color=&quot;#808080&quot;&gt;&lt;span style=&quot;font-size: 15px&quot;&gt;WEEKLY DISPLAY&lt;/span&gt;&lt;/font&gt;" style="text;html=1;strokeColor=none;fillColor=none;align=center;verticalAlign=middle;whiteSpace=wrap;rounded=0;" vertex="1" parent="mmVTkdA0utSBWZKQFHr_-6">
                    <mxGeometry x="-40" width="130" height="30" as="geometry"/>
                </mxCell>
                <mxCell id="mmVTkdA0utSBWZKQFHr_-12" value="" style="endArrow=none;dashed=1;html=1;dashPattern=1 3;strokeWidth=2;exitX=0.5;exitY=1;exitDx=0;exitDy=0;entryX=0.25;entryY=0;entryDx=0;entryDy=0;" edge="1" parent="mmVTkdA0utSBWZKQFHr_-1" source="mmVTkdA0utSBWZKQFHr_-11" target="mmVTkdA0utSBWZKQFHr_-2">
                    <mxGeometry width="50" height="50" relative="1" as="geometry">
                        <mxPoint x="230" y="160" as="sourcePoint"/>
                        <mxPoint x="280" y="110" as="targetPoint"/>
                    </mxGeometry>
                </mxCell>
            </root>
        </mxGraphModel>
    </diagram>
</mxfile>